<svg width="48" height="48" viewBox="0 0 48 48" fill="none" xmlns="http://www.w3.org/2000/svg">
<path d="M24 48C37.2548 48 48 37.2548 48 24C48 10.7452 37.2548 0 24 0C10.7452 0 0 10.7452 0 24C0 37.2548 10.7452 48 24 48Z" fill="#ADF22F"/>
<rect width="48" height="48" rx="8" fill="#ADF22F"/>
<path d="M25.6562 22.8557H31.8086C31.8521 22.8557 31.8938 22.873 31.9246 22.9038C31.9553 22.9345 31.9726 22.9763 31.9726 23.0198V31.2815C31.9726 32.0243 31.6775 32.7367 31.1523 33.2619C30.627 33.7872 29.9147 34.0823 29.1718 34.0823H19.3281C18.5853 34.0823 17.8729 33.7872 17.3476 33.2619C16.8224 32.7367 16.5273 32.0243 16.5273 31.2815V17.219C16.5273 16.4762 16.8224 15.7638 17.3476 15.2385C17.8729 14.7133 18.5853 14.4182 19.3281 14.4182H23.3711C23.4146 14.4182 23.4563 14.4355 23.4871 14.4663C23.5178 14.497 23.5351 14.5388 23.5351 14.5823V20.7346C23.5351 21.2972 23.7586 21.8367 24.1564 22.2345C24.5542 22.6322 25.0937 22.8557 25.6562 22.8557ZM20.7343 29.887H27.7656C27.9552 29.887 28.137 29.8116 28.2711 29.6776C28.4051 29.5435 28.4804 29.3617 28.4804 29.1721C28.4804 28.9825 28.4051 28.8007 28.2711 28.6666C28.137 28.5326 27.9552 28.4573 27.7656 28.4573H20.7343C20.5448 28.4573 20.3629 28.5326 20.2289 28.6666C20.0948 28.8007 20.0195 28.9825 20.0195 29.1721C20.0195 29.3617 20.0948 29.5435 20.2289 29.6776C20.3629 29.8116 20.5448 29.887 20.7343 29.887ZM20.7343 26.3713H27.7656C27.9552 26.3713 28.137 26.296 28.2711 26.162C28.4051 26.0279 28.4804 25.8461 28.4804 25.6565C28.4804 25.4669 28.4051 25.2851 28.2711 25.151C28.137 25.017 27.9552 24.9416 27.7656 24.9416H20.7343C20.5448 24.9416 20.3629 25.017 20.2289 25.151C20.0948 25.2851 20.0195 25.4669 20.0195 25.6565C20.0195 25.8461 20.0948 26.0279 20.2289 26.162C20.3629 26.296 20.5448 26.3713 20.7343 26.3713Z" fill="white" stroke="#ADF22F" stroke-width="0.0234375"/>
<path d="M25.0946 14.9775L31.4144 21.2972L25.0946 14.9775ZM25.0946 14.9775C25.0946 14.9775 25.0946 14.9775 25.0946 14.9775M25.0946 14.9775L25.0946 14.9775M25.0946 14.9775C25.084 14.9669 25.0704 14.9597 25.0557 14.9568C25.041 14.9539 25.0257 14.9554 25.0118 14.9611C24.9979 14.9668 24.9861 14.9766 24.9777 14.989C24.9693 15.0015 24.9648 15.0161 24.9648 15.0312V20.7357C24.9648 20.919 25.0376 21.0949 25.1673 21.2246C25.2969 21.3542 25.4728 21.4271 25.6562 21.4271H31.3607C31.3757 21.427 31.3903 21.4225 31.4028 21.4141C31.4153 21.4058 31.425 21.3939 31.4307 21.38C31.4365 21.3661 31.438 21.3509 31.4351 21.3361C31.4321 21.3214 31.425 21.3079 31.4144 21.2972L25.0946 14.9775Z" fill="white" stroke="#ADF22F" stroke-width="0.0234375"/>
</svg>
