<svg width="12" height="12" viewBox="0 0 12 12" fill="none" xmlns="http://www.w3.org/2000/svg">
<g clip-path="url(#clip0_2611_4898)">
<path d="M9.97247 3.67535C9.98545 3.66778 9.99621 3.65694 10.0037 3.64392C10.0112 3.6309 10.0151 3.61614 10.0151 3.60112C10.0151 3.5861 10.0112 3.57135 10.0037 3.55832C9.99621 3.5453 9.98545 3.53446 9.97247 3.52689L6.69095 1.62037C6.48098 1.49866 6.2426 1.43457 5.99991 1.43457C5.75722 1.43457 5.51883 1.49866 5.30886 1.62037L2.02798 3.52689C2.01501 3.53446 2.00425 3.5453 1.99677 3.55832C1.98929 3.57135 1.98535 3.5861 1.98535 3.60112C1.98535 3.61614 1.98929 3.6309 1.99677 3.64392C2.00425 3.65694 2.01501 3.66778 2.02798 3.67535L5.95704 5.98664C5.97026 5.99442 5.98532 5.99853 6.00066 5.99853C6.016 5.99853 6.03105 5.99442 6.04427 5.98664L9.97247 3.67535Z" fill="white"/>
<path d="M1.66016 4.25956C1.64705 4.25199 1.63218 4.24802 1.61705 4.24805C1.60192 4.24807 1.58706 4.25209 1.57398 4.2597C1.5609 4.26731 1.55006 4.27824 1.54256 4.29138C1.53505 4.30452 1.53115 4.31941 1.53125 4.33454V8.07046C1.53158 8.25049 1.57903 8.4273 1.66888 8.58331C1.75874 8.73932 1.88787 8.86908 2.04344 8.9597L5.52735 11.0486C5.5404 11.0562 5.55521 11.0601 5.57029 11.0601C5.58537 11.0601 5.60018 11.0562 5.61325 11.0486C5.62631 11.0411 5.63716 11.0303 5.64471 11.0172C5.65225 11.0042 5.65624 10.9894 5.65625 10.9743V6.63981C5.65624 6.62474 5.65226 6.60994 5.64472 6.5969C5.63717 6.58385 5.62633 6.57301 5.61328 6.56548L1.66016 4.25956Z" fill="white"/>
<path d="M6.34375 6.65497V10.9733C6.34377 10.9884 6.34775 11.0032 6.3553 11.0163C6.36285 11.0293 6.3737 11.0402 6.38676 11.0477C6.39982 11.0552 6.41463 11.0592 6.42971 11.0592C6.44479 11.0592 6.4596 11.0552 6.47266 11.0477L9.95635 8.95874C10.1118 8.86824 10.2409 8.73866 10.3308 8.58286C10.4206 8.42705 10.4682 8.25045 10.4687 8.07058V4.33466C10.4687 4.3196 10.4647 4.30482 10.4571 4.2918C10.4496 4.27877 10.4387 4.26797 10.4256 4.26046C10.4126 4.25295 10.3978 4.24901 10.3827 4.24902C10.3677 4.24904 10.3529 4.25301 10.3398 4.26054L6.38672 6.58085C6.3737 6.58837 6.36288 6.59917 6.35534 6.61217C6.3478 6.62518 6.3438 6.63994 6.34375 6.65497Z" fill="white"/>
</g>
<defs>
<clipPath id="clip0_2611_4898">
<rect width="11" height="11" fill="white" transform="translate(0.5 0.747559)"/>
</clipPath>
</defs>
</svg>
