<svg width="31" height="30" viewBox="0 0 31 30" fill="none" xmlns="http://www.w3.org/2000/svg">
<rect x="0.499878" width="30" height="30" rx="8" fill="#ADF22F"/>
<g clip-path="url(#clip0_3933_151)">
<path d="M15.6628 10.4674C15.6191 10.4256 15.5611 10.4023 15.5008 10.4023C15.4404 10.4023 15.3824 10.4256 15.3387 10.4674L9.94519 15.6198C9.92228 15.6417 9.90406 15.668 9.89162 15.6972C9.87919 15.7263 9.87279 15.7577 9.87283 15.7894L9.87195 20.6252C9.87195 20.8738 9.97072 21.1123 10.1465 21.2881C10.3224 21.4639 10.5608 21.5627 10.8094 21.5627H13.6249C13.7492 21.5627 13.8684 21.5133 13.9563 21.4254C14.0442 21.3375 14.0936 21.2182 14.0936 21.0939V17.1095C14.0936 17.0474 14.1183 16.9878 14.1623 16.9438C14.2062 16.8999 14.2658 16.8752 14.328 16.8752H16.6718C16.7339 16.8752 16.7935 16.8999 16.8375 16.9438C16.8814 16.9878 16.9061 17.0474 16.9061 17.1095V21.0939C16.9061 21.2182 16.9555 21.3375 17.0434 21.4254C17.1313 21.5133 17.2506 21.5627 17.3749 21.5627H20.1891C20.4378 21.5627 20.6762 21.4639 20.852 21.2881C21.0279 21.1123 21.1266 20.8738 21.1266 20.6252V15.7894C21.1267 15.7577 21.1203 15.7263 21.1078 15.6972C21.0954 15.668 21.0772 15.6417 21.0543 15.6198L15.6628 10.4674Z" fill="white"/>
<path d="M22.3824 14.6538L20.191 12.5573V9.37598C20.191 9.25166 20.1416 9.13243 20.0537 9.04452C19.9658 8.95661 19.8465 8.90723 19.7222 8.90723H18.316C18.1917 8.90723 18.0724 8.95661 17.9845 9.04452C17.8966 9.13243 17.8472 9.25166 17.8472 9.37598V10.3135L16.1503 8.69102C15.9916 8.53047 15.7554 8.43848 15.5003 8.43848C15.246 8.43848 15.0104 8.53047 14.8516 8.69131L8.62018 14.6532C8.43795 14.829 8.4151 15.1182 8.58092 15.3086C8.62256 15.3567 8.67354 15.3958 8.73077 15.4235C8.788 15.4512 8.85027 15.467 8.9138 15.4699C8.97733 15.4728 9.04079 15.4628 9.10031 15.4404C9.15983 15.418 9.21417 15.3837 9.26002 15.3396L15.3391 9.53066C15.3827 9.48894 15.4408 9.46565 15.5011 9.46565C15.5615 9.46565 15.6195 9.48894 15.6631 9.53066L21.7428 15.3396C21.8324 15.4255 21.9523 15.4724 22.0764 15.47C22.2005 15.4676 22.3185 15.4161 22.4046 15.3268C22.5845 15.1404 22.5696 14.8328 22.3824 14.6538Z" fill="white"/>
</g>
<defs>
<clipPath id="clip0_3933_151">
<rect width="15" height="15" fill="white" transform="translate(7.99988 7.5)"/>
</clipPath>
</defs>
</svg>
