<svg width="105" height="21" viewBox="0 0 105 21" fill="none" xmlns="http://www.w3.org/2000/svg">
<path d="M38.4022 7.08639C38.7642 6.71043 39.2005 6.41411 39.6835 6.21636C40.1666 6.0186 40.686 5.92377 41.2078 5.9379C43.4667 5.9379 44.9345 7.50051 44.9345 9.83503V15.7646H42.3363V10.2861C42.3363 9.13702 41.6772 8.34691 40.5657 8.34691C40.2795 8.32687 39.9927 8.3688 39.7242 8.46984C39.4557 8.57088 39.2124 8.72864 39.0105 8.93237C38.8085 9.1361 38.6526 9.381 38.5539 9.65035C38.4553 9.91971 38.4157 10.2072 38.4382 10.4932V15.7646H35.821V6.10624H38.4022V7.08639Z" fill="#222222"/>
<path d="M30.0074 15.9907C29.3356 16.0253 28.6639 15.9194 28.0352 15.6798C27.4066 15.4402 26.8347 15.0721 26.3563 14.5991C25.8779 14.126 25.5038 13.5584 25.2571 12.9325C25.0104 12.3065 24.8966 11.636 24.9237 10.9638C24.9097 10.2925 25.0329 9.62541 25.2852 9.00316C25.5374 8.38091 25.9138 7.81656 26.3913 7.34454C26.8688 6.87251 27.437 6.50271 28.0622 6.25769C28.6873 6.01266 29.3558 5.89754 30.0269 5.91936C33.0771 5.91936 34.9228 8.03099 34.9228 10.8336C34.9228 11.2107 34.8855 11.6999 34.8855 11.7563H27.5048C27.6167 12.3446 27.9375 12.8726 28.4081 13.2428C28.8788 13.6131 29.4678 13.8008 30.0659 13.7711C30.5656 13.7883 31.0616 13.6802 31.5088 13.4565C31.956 13.2328 32.3404 12.9008 32.6264 12.4906L34.5842 13.6954C34.0866 14.4427 33.4025 15.0474 32.6 15.4498C31.7975 15.8523 30.9039 16.0387 30.0074 15.9907ZM27.5982 9.81531H32.2861C32.1734 9.30187 31.8826 8.84468 31.4658 8.52428C31.0491 8.20388 30.5326 8.04083 30.0074 8.06384C29.466 8.0361 28.9315 8.19483 28.4929 8.51356C28.0543 8.83229 27.739 9.29175 27.5982 9.81531Z" fill="#222222"/>
<path d="M48.2844 15.7648L45.1407 6.10645H48.0025L50.0922 13.2801L52.1635 6.10645H54.9307L51.7877 15.7648H48.2844Z" fill="#222222"/>
<path d="M65.2833 10.9637C65.3121 11.9954 65.0323 13.0123 64.4802 13.8844C63.9281 14.7564 63.1287 15.4441 62.1838 15.8593C61.2389 16.2746 60.1917 16.3987 59.1759 16.2157C58.1602 16.0327 57.222 15.5509 56.4814 14.832C55.7408 14.1131 55.2315 13.1896 55.0184 12.1797C54.8054 11.1698 54.8983 10.1193 55.2854 9.16251C55.6724 8.2057 56.3358 7.38604 57.1911 6.80832C58.0464 6.23059 59.0546 5.92105 60.0867 5.91924C60.7623 5.89693 61.4358 6.01103 62.0664 6.2547C62.6969 6.49838 63.2717 6.86664 63.7567 7.3375C64.2418 7.80835 64.6269 8.37213 64.8892 8.99516C65.1515 9.6182 65.2856 10.2877 65.2833 10.9637ZM57.4884 10.9637C57.4685 11.3099 57.5192 11.6565 57.6379 11.9822C57.7567 12.308 57.9406 12.6061 58.1787 12.8582C58.4167 13.1104 58.704 13.3113 59.0224 13.4485C59.3408 13.5858 59.6838 13.6566 60.0306 13.6566C60.383 13.6586 60.7322 13.5901 61.0576 13.455C61.3831 13.3199 61.6781 13.121 61.9255 12.87C62.1728 12.619 62.3673 12.321 62.4977 11.9936C62.6281 11.6662 62.6916 11.316 62.6844 10.9637C62.6935 10.6168 62.6334 10.2716 62.5069 9.9485C62.3804 9.62538 62.1905 9.33086 61.9484 9.08232C61.7062 8.83378 61.4163 8.63624 61.0966 8.50137C60.7769 8.36649 60.4337 8.29701 60.0867 8.29701C59.7397 8.29701 59.396 8.36649 59.0763 8.50137C58.7566 8.63624 58.4672 8.83378 58.2251 9.08232C57.9829 9.33086 57.7931 9.62538 57.6666 9.9485C57.5401 10.2716 57.4794 10.6168 57.4884 10.9637Z" fill="#222222"/>
<path d="M71.4754 15.4264C70.5715 18.0072 69.4041 19.0977 67.032 19.0977H66.0909V16.7438H66.8814C67.2707 16.7437 67.6506 16.6247 67.9703 16.4026C68.2901 16.1806 68.5342 15.8662 68.6703 15.5014L65.0742 6.10645H68.066L70.0428 12.0554L72.0006 6.10645H74.7118L71.4754 15.4264Z" fill="#222222"/>
<path d="M79.8706 8.30884C80.3586 8.29852 80.8391 8.42544 81.2585 8.67516C81.6779 8.92487 82.0192 9.28734 82.2426 9.72128L84.2956 8.44081C83.8426 7.65001 83.1826 6.99744 82.387 6.5531C81.5913 6.10876 80.6898 5.88942 79.7789 5.91859C79.113 5.9114 78.4522 6.03637 77.8348 6.28625C77.2174 6.53614 76.6557 6.90598 76.1822 7.37438C75.7087 7.84278 75.3326 8.40043 75.0761 9.01506C74.8196 9.62969 74.6877 10.2891 74.6877 10.9551C74.6877 11.6211 74.8196 12.2805 75.0761 12.8952C75.3326 13.5098 75.7087 14.0675 76.1822 14.5359C76.6557 15.0042 77.2174 15.3741 77.8348 15.624C78.4522 15.8739 79.113 15.9988 79.7789 15.9916C80.6814 16.0227 81.5756 15.8101 82.3675 15.3761C83.1594 14.942 83.8197 14.3026 84.279 13.5251L82.2455 12.2259C82.022 12.6598 81.6813 13.0223 81.262 13.272C80.8426 13.5217 80.3614 13.6487 79.8734 13.6383C79.5246 13.6489 79.1774 13.5861 78.8544 13.4539C78.5314 13.3218 78.2395 13.1232 77.998 12.8712C77.7566 12.6192 77.5709 12.3192 77.4527 11.9908C77.3346 11.6624 77.2868 11.3129 77.3124 10.9648C77.287 10.6178 77.3351 10.2694 77.4533 9.9422C77.5715 9.615 77.7573 9.31639 77.9986 9.06581C78.24 8.81523 78.5313 8.61831 78.8538 8.48788C79.1764 8.35746 79.5229 8.29645 79.8706 8.30884Z" fill="#93D500"/>
<path d="M92.2218 6.87815C91.3963 6.29659 90.4068 5.99313 89.3972 6.0118C88.0925 6.02727 86.8471 6.55895 85.9334 7.49047C85.0197 8.422 84.5123 9.67753 84.522 10.9823C84.5181 11.6255 84.6414 12.2631 84.8846 12.8586C85.1278 13.454 85.4861 13.9956 85.9391 14.4521C86.3922 14.9087 86.9311 15.2713 87.5247 15.519C88.1182 15.7668 88.7546 15.8949 89.3978 15.896C90.4052 15.921 91.3947 15.6245 92.2224 15.0496V15.7646H94.8395V6.10624H92.2224L92.2218 6.87815ZM89.6235 13.5808C88.9439 13.5664 88.2969 13.2863 87.8214 12.8005C87.3459 12.3148 87.0796 11.6621 87.0796 10.9823C87.0796 10.3026 87.3459 9.64989 87.8214 9.16415C88.2969 8.67841 88.9439 8.3983 89.6235 8.38386C89.9673 8.38077 90.3083 8.4456 90.6271 8.57463C90.9458 8.70367 91.2357 8.89437 91.4806 9.13579C91.7254 9.37721 91.9204 9.66461 92.0539 9.98148C92.1875 10.2984 92.2572 10.6385 92.259 10.9823C92.262 11.3277 92.1951 11.6702 92.0631 11.9894C91.9311 12.3086 91.7364 12.598 91.4903 12.8404C91.2442 13.0828 90.9522 13.2733 90.6311 13.4005C90.3099 13.5277 89.9665 13.589 89.6212 13.5808H89.6235Z" fill="#93D500"/>
<path d="M101.272 5.93685C100.75 5.92309 100.232 6.0181 99.749 6.21583C99.2661 6.41357 98.8298 6.70969 98.4676 7.08535V6.10637H95.8865V15.7647H98.5037V10.4933C98.4811 10.2073 98.5207 9.91983 98.6194 9.65048C98.7181 9.38113 98.8734 9.13623 99.0753 8.9325C99.2773 8.72877 99.5212 8.571 99.7896 8.46997C100.058 8.36893 100.345 8.327 100.631 8.34704C101.743 8.34704 102.402 9.13715 102.402 10.2862V15.7647H105V9.83398C105.001 7.49711 103.532 5.93685 101.272 5.93685Z" fill="#93D500"/>
<path d="M11.1 16.5965C10.2665 16.502 9.42738 16.6446 8.59739 16.4692C7.46457 16.2277 6.43555 15.639 5.65312 14.7849C4.87068 13.9309 4.37414 12.8541 4.23254 11.7045C4.2085 11.5122 4.19461 11.3188 4.19129 11.125C4.17186 10.149 4.41304 9.18549 4.88956 8.33354C4.94169 8.2379 4.98631 8.13849 5.02359 8.03615C5.24417 7.69121 5.50276 7.37191 5.79403 7.08415C6.11256 6.77116 6.32265 6.36457 6.39377 5.9237C6.46489 5.48283 6.39322 5.03077 6.18927 4.63349C6.01781 4.31484 5.76824 4.04488 5.46409 3.84885C5.15994 3.65281 4.81123 3.53712 4.45021 3.51257C3.5117 3.44746 2.80158 4.06042 2.242 4.74435C2.18921 4.80888 2.13668 4.87457 2.08448 4.93968C0.732567 6.68849 -0.000478291 8.83655 2.34134e-07 11.047C8.01574e-05 11.435 0.0240199 11.8227 0.0716022 12.2078C0.128391 12.6797 0.220756 13.1465 0.348272 13.6044C1.00568 16.0206 2.57254 18.0887 4.72057 19.3756C5.02031 19.5563 5.33414 19.7117 5.64854 19.866C6.24076 20.171 6.86664 20.4053 7.51362 20.564C8.66055 20.8277 9.84569 20.8816 11.0118 20.7229C11.3358 20.6761 11.6445 20.5541 11.9128 20.3666C12.1812 20.1792 12.4018 19.9315 12.5573 19.6434C12.7127 19.3553 12.7988 19.0349 12.8082 18.7076C12.8175 18.3804 12.7504 18.0555 12.6117 17.759C12.4749 17.4558 12.2653 17.191 12.0016 16.9882C11.7379 16.7853 11.4282 16.6508 11.1 16.5965Z" fill="#93D500"/>
<path d="M14.4515 14.473C14.0511 14.9146 13.5808 15.2873 13.0596 15.5763L14.9098 19.3567C15.8679 18.8512 16.7331 18.1873 17.4697 17.3929C19.0729 15.6793 20.0009 13.4427 20.0817 11.0973L15.8893 11.0205C15.8269 12.3037 15.3183 13.5248 14.4515 14.473Z" fill="#222222"/>
<path d="M18.1433 4.89681C17.1602 3.58177 15.8607 2.53645 14.3656 1.85791C12.8705 1.17936 11.2282 0.889599 9.59118 1.01552C9.45041 1.02725 9.31038 1.03898 9.16902 1.05658C8.19175 1.17432 7.23789 1.43994 6.34045 1.84433L8.07379 5.38659C8.07798 5.39522 8.08487 5.40234 8.09327 5.40696C8.10168 5.41158 8.11123 5.41348 8.12077 5.4124L9.68112 5.2247C9.81896 5.20827 9.95743 5.19772 10.0947 5.19068C10.8618 5.15549 11.6274 5.28036 12.3436 5.55737C13.0597 5.83437 13.7107 6.25743 14.2545 6.79962L9.82604 8.96697L11.423 12.2318L19.738 8.16338C19.4176 6.98352 18.8766 5.87509 18.1433 4.89681Z" fill="#222222"/>
</svg>
