<svg width="48" height="48" viewBox="0 0 48 48" fill="none" xmlns="http://www.w3.org/2000/svg">
<path d="M24 48C37.2548 48 48 37.2548 48 24C48 10.7452 37.2548 0 24 0C10.7452 0 0 10.7452 0 24C0 37.2548 10.7452 48 24 48Z" fill="#ADF22F"/>
<rect width="48" height="48" rx="8" fill="#ADF22F"/>
<path d="M17.1967 17.568H31.2592C31.4234 17.568 31.5875 17.5784 31.7505 17.5992C31.6953 17.2115 31.5621 16.839 31.359 16.5042C31.1559 16.1694 30.8871 15.8791 30.5688 15.651C30.2506 15.4228 29.8894 15.2615 29.507 15.1767C29.1247 15.0919 28.7292 15.0854 28.3443 15.1576L16.7792 17.1321H16.766C16.0401 17.2709 15.3945 17.6817 14.9612 18.2804C15.614 17.816 16.3955 17.567 17.1967 17.568Z" fill="white"/>
<path d="M31.2593 18.625H17.1968C16.4512 18.6258 15.7363 18.9224 15.209 19.4497C14.6817 19.9769 14.3852 20.6918 14.3843 21.4375V29.875C14.3852 30.6207 14.6817 31.3356 15.209 31.8628C15.7363 32.3901 16.4512 32.6867 17.1968 32.6875H31.2593C32.005 32.6867 32.7199 32.3901 33.2472 31.8628C33.7744 31.3356 34.071 30.6207 34.0718 29.875V21.4375C34.071 20.6918 33.7744 19.9769 33.2472 19.4497C32.7199 18.9224 32.005 18.6258 31.2593 18.625ZM29.1719 27.0625C28.8938 27.0625 28.6219 26.98 28.3907 26.8255C28.1594 26.671 27.9792 26.4514 27.8727 26.1944C27.7663 25.9374 27.7384 25.6547 27.7927 25.3819C27.847 25.1091 27.9809 24.8585 28.1776 24.6619C28.3742 24.4652 28.6248 24.3313 28.8976 24.277C29.1704 24.2228 29.4531 24.2506 29.7101 24.357C29.967 24.4635 30.1867 24.6437 30.3412 24.875C30.4957 25.1062 30.5782 25.3781 30.5782 25.6562C30.5782 26.0292 30.43 26.3869 30.1663 26.6506C29.9026 26.9143 29.5449 27.0625 29.1719 27.0625Z" fill="white"/>
<path d="M14.4062 24.4014V20.0288C14.4062 19.0765 14.9336 17.48 16.7639 17.1341C18.3174 16.8428 19.8554 16.8428 19.8554 16.8428C19.8554 16.8428 20.8662 17.5459 20.0312 17.5459C19.1963 17.5459 19.2182 18.6226 20.0312 18.6226C20.8442 18.6226 20.0312 19.6553 20.0312 19.6553L16.7573 23.3687L14.4062 24.4014Z" fill="white"/>
</svg>
