<svg width="48" height="48" viewBox="0 0 48 48" fill="none" xmlns="http://www.w3.org/2000/svg">
<path d="M24 48C37.2548 48 48 37.2548 48 24C48 10.7452 37.2548 0 24 0C10.7452 0 0 10.7452 0 24C0 37.2548 10.7452 48 24 48Z" fill="#ADF22F"/>
<rect width="48" height="48" rx="8" fill="#ADF22F"/>
<path d="M20.7343 32.6875C21.5109 32.6875 22.1405 32.0579 22.1405 31.2812C22.1405 30.5046 21.5109 29.875 20.7343 29.875C19.9576 29.875 19.328 30.5046 19.328 31.2812C19.328 32.0579 19.9576 32.6875 20.7343 32.6875Z" fill="white"/>
<path d="M30.5781 32.6875C31.3547 32.6875 31.9843 32.0579 31.9843 31.2812C31.9843 30.5046 31.3547 29.875 30.5781 29.875C29.8014 29.875 29.1718 30.5046 29.1718 31.2812C29.1718 32.0579 29.8014 32.6875 30.5781 32.6875Z" fill="white"/>
<path d="M33.0742 18.308C32.9754 18.1871 32.8509 18.0898 32.7098 18.0231C32.5688 17.9563 32.4146 17.9218 32.2585 17.9221H18.8838L18.6144 16.3937C18.5857 16.2309 18.5005 16.0834 18.3738 15.9772C18.2472 15.8709 18.0871 15.8127 17.9218 15.8127H15.1093C14.9228 15.8127 14.744 15.8868 14.6121 16.0187C14.4803 16.1505 14.4062 16.3294 14.4062 16.5159C14.4062 16.7023 14.4803 16.8812 14.6121 17.0131C14.744 17.1449 14.9228 17.219 15.1093 17.219H17.3321L19.3386 28.5912C19.3673 28.754 19.4525 28.9014 19.5792 29.0077C19.7058 29.1139 19.8659 29.1721 20.0312 29.1721H31.2812C31.4677 29.1721 31.6465 29.098 31.7784 28.9662C31.9102 28.8343 31.9843 28.6555 31.9843 28.469C31.9843 28.2825 31.9102 28.1037 31.7784 27.9718C31.6465 27.8399 31.4677 27.7659 31.2812 27.7659H20.6209L20.3731 26.3596H30.9929C31.2367 26.3593 31.473 26.2748 31.6617 26.1203C31.8503 25.9658 31.9798 25.7509 32.0283 25.5119L33.2939 19.1838C33.3244 19.0306 33.3205 18.8726 33.2825 18.7212C33.2445 18.5697 33.1733 18.4286 33.0742 18.308Z" fill="white"/>
</svg>
