<svg width="12" height="12" viewBox="0 0 12 12" fill="none" xmlns="http://www.w3.org/2000/svg">
<g clip-path="url(#clip0_2611_4890)">
<path d="M7.64658 2.13478C7.2285 1.68339 6.64455 1.43481 6.00002 1.43481C5.35205 1.43481 4.76617 1.68188 4.35002 2.13048C3.92936 2.58401 3.7244 3.2004 3.77252 3.86599C3.86791 5.17911 4.86715 6.24731 6.00002 6.24731C7.13289 6.24731 8.13041 5.17933 8.2273 3.86642C8.27607 3.20685 8.06982 2.59175 7.64658 2.13478Z" fill="white"/>
<path d="M9.78137 11.0593H2.21887C2.11989 11.0606 2.02186 11.0398 1.93192 10.9985C1.84198 10.9571 1.76239 10.8962 1.69895 10.8202C1.5593 10.6533 1.50301 10.4253 1.54469 10.1948C1.72602 9.1889 2.29192 8.34392 3.18137 7.75073C3.97157 7.22415 4.97252 6.93433 6.00012 6.93433C7.02772 6.93433 8.02867 7.22437 8.81887 7.75073C9.70832 8.3437 10.2742 9.18868 10.4555 10.1946C10.4972 10.4251 10.4409 10.6531 10.3013 10.82C10.2379 10.896 10.1583 10.957 10.0684 10.9984C9.97841 11.0398 9.88037 11.0606 9.78137 11.0593Z" fill="white"/>
</g>
<defs>
<clipPath id="clip0_2611_4890">
<rect width="11" height="11" fill="white" transform="translate(0.5 0.747559)"/>
</clipPath>
</defs>
</svg>
